<mxfile host="app.diagrams.net" modified="2023-05-07T12:22:39.444Z" agent="Mozilla/5.0 (Macintosh; Intel Mac OS X 10.15; rv:109.0) Gecko/20100101 Firefox/112.0" version="21.2.9" etag="fPVrjGZEs2-okWVIRj2-" type="github">
  <diagram name="Page-1" id="kg5Vm6Oi2As0jij2HQP2">
    <mxGraphModel>
      <root>
        <mxCell id="0" />
        <mxCell id="1" parent="0" />
      </root>
    </mxGraphModel>
  </diagram>
</mxfile>
